<?xml version="1.0" standalone="no"?><!DOCTYPE svg PUBLIC "-//W3C//DTD SVG 1.1//EN" "http://www.w3.org/Graphics/SVG/1.1/DTD/svg11.dtd"><svg t="1622817657795" class="icon" viewBox="0 0 1024 1024" version="1.1" xmlns="http://www.w3.org/2000/svg" p-id="1181" xmlns:xlink="http://www.w3.org/1999/xlink" width="200" height="200"><defs><style type="text/css"></style></defs><path d="M825.568 555.328l-287.392-289.28a31.872 31.872 0 0 0-22.976-9.408c-1.12-0.096-2.08-0.64-3.2-0.64a31.648 31.648 0 0 0-13.024 2.88 31.552 31.552 0 0 0-11.136 7.136l-259.328 258.88a31.968 31.968 0 0 0 22.624 54.656c8.192 0 16.352-3.136 22.624-9.344L480 364.288V928a32 32 0 1 0 64 0V362.72l236.192 237.728a32 32 0 1 0 45.376-45.12zM864 192H160a32 32 0 0 1 0-64h704a32 32 0 1 1 0 64z" fill="#1296db" p-id="1182"></path></svg>